<svg width="48" height="37" viewBox="0 0 48 37" fill="none" xmlns="http://www.w3.org/2000/svg">
<path d="M3.80198 30.7183C1.52079 32.0297 0.316832 35.1266 0 37H48C47.6832 35.1266 46.4792 32.0297 44.198 30.7183C41.3465 29.0791 36.3564 26.7373 35.1683 26.269C33.9802 25.8006 30.4158 24.3955 30.1782 23.693C29.9881 23.131 30.099 20.8048 30.1782 19.712C30.4158 19.6339 30.8911 17.8166 30.8911 17.2546V14.7723C32.3168 14.7723 32.9822 12.8052 32.7921 11.4938C32.602 10.1824 31.7624 10.1668 31.604 10.5571V6.57609C31.3663 4.85879 29.5129 -0.355487 24 0.0191961C18.4871 -0.355487 16.6337 4.85879 16.396 6.57609V10.5571C16.2376 10.1668 15.398 10.1824 15.2079 11.4938C15.0178 12.8052 15.6832 14.7723 17.1089 14.7723V17.2546C17.1089 17.8166 17.5842 19.6339 17.8218 19.712C17.901 20.8048 18.0119 23.131 17.8218 23.693C17.5842 24.3955 14.0198 25.8006 12.8317 26.269L12.8317 26.269C11.6436 26.7373 6.65347 29.0791 3.80198 30.7183Z" fill="#C7C7C7"/>
</svg>
